# xmcd CD database file
#
# Track frame offsets:
#	150
#	14977
#	27912
#	41415
#	56512
#	70497
#	84095
#	98230
#	108352
#	119850
#	131417
#	144127
#	157547
#	170790
#	182945
#	194850
#	209820
#	224332
#	238420
#	250340
#	262750
#	276247
#	290422
#	301355
#
# Disc length: 4191 seconds
#
# Revision: 0
# Processed by: cddbd v1.5.1PL0 Copyright (c) Steve Scherf et al.
# Submitted via: CDex 1.51
#
DISCID=74105d18
DTITLE=George Shearing Original Quintet - September In the Rain
DYEAR=1900
DGENRE=Jazz
TTITLE0=September In The Rain
TTITLE1=Good to The Last Bop
TTITLE2=Bop, Look And Listen
TTITLE3=I Didn't Know What Time It Was
TTITLE4=The Continental
TTITLE5=Nothing But D Best
TTITLE6=East Of The Sun (And West Of The Moon)
TTITLE7=In A Chinese Garden Part 1
TTITLE8=In A Chinese Garden Part 2
TTITLE9=Conception
TTITLE10=I'll Remember April
TTITLE11=Little White Lies
TTITLE12=Carnegie Horizons
TTITLE13=Jumpin' With Symphony Sid
TTITLE14=November Seascape
TTITLE15=How's Trix?
TTITLE16=Changing With The Times
TTITLE17=Strollin'
TTITLE18=When Your Lover Has Gone
TTITLE19=As Long As There's Music
TTITLE20=Roses Of Picady
TTITLE21=For You
TTITLE22=(Geneva's) Move
TTITLE23=Pick Yourself Up
EXTD=
EXTT0=
EXTT1=
EXTT2=
EXTT3=
EXTT4=
EXTT5=
EXTT6=
EXTT7=
EXTT8=
EXTT9=
EXTT10=
EXTT11=
EXTT12=
EXTT13=
EXTT14=
EXTT15=
EXTT16=
EXTT17=
EXTT18=
EXTT19=
EXTT20=
EXTT21=
EXTT22=
EXTT23=
PLAYORDER=
